{
	"asset":{
		"generator":"Khronos glTF Blender I/O v4.4.56",
		"version":"2.0"
	},
	"extensionsUsed":[
		"KHR_materials_specular"
	],
	"scene":0,
	"scenes":[
		{
			"name":"Scene",
			"nodes":[
				0
			]
		}
	],
	"nodes":[
		{
			"mesh":0,
			"name":"Cerberus00_Fixed",
			"scale":[
				0.009999999776482582,
				0.009999999776482582,
				0.009999999776482582
			],
			"translation":[
				0,
				0,
				-0.9372016191482544
			]
		}
	],
	"materials":[
		{
			"doubleSided":true,
			"extensions":{
				"KHR_materials_specular":{
					"specularFactor":0
				}
			},
			"name":"08 - Default",
			"normalTexture":{
				"index":0
			},
			"pbrMetallicRoughness":{
				"baseColorTexture":{
					"index":1
				},
				"metallicRoughnessTexture":{
					"index":2
				}
			}
		}
	],
	"meshes":[
		{
			"name":"Mesh",
			"primitives":[
				{
					"attributes":{
						"POSITION":0,
						"NORMAL":1,
						"TEXCOORD_0":2,
						"TANGENT":3
					},
					"indices":4,
					"material":0
				}
			]
		}
	],
	"textures":[
		{
			"sampler":0,
			"source":0
		},
		{
			"sampler":0,
			"source":1
		},
		{
			"sampler":0,
			"source":2
		}
	],
	"images":[
		{
			"mimeType":"image/png",
			"name":"Cerberus_N",
			"uri":"Textures/Cerberus_N.png"
		},
		{
			"mimeType":"image/png",
			"name":"Map 2",
			"uri":"Textures/Map%202.png"
		},
		{
			"mimeType":"image/png",
			"name":"Cerberus_M-Cerberus_R",
			"uri":"Textures/Cerberus_M-Cerberus_R.png"
		}
	],
	"accessors":[
		{
			"bufferView":0,
			"componentType":5126,
			"count":30212,
			"max":[
				12.520315170288086,
				18.77880096435547,
				130.2689666748047
			],
			"min":[
				-19.99312400817871,
				-47.20871353149414,
				-25.837120056152344
			],
			"type":"VEC3"
		},
		{
			"bufferView":1,
			"componentType":5126,
			"count":30212,
			"type":"VEC3"
		},
		{
			"bufferView":2,
			"componentType":5126,
			"count":30212,
			"type":"VEC2"
		},
		{
			"bufferView":3,
			"componentType":5126,
			"count":30212,
			"type":"VEC4"
		},
		{
			"bufferView":4,
			"componentType":5123,
			"count":100623,
			"type":"SCALAR"
		}
	],
	"bufferViews":[
		{
			"buffer":0,
			"byteLength":362544,
			"byteOffset":0,
			"target":34962
		},
		{
			"buffer":0,
			"byteLength":362544,
			"byteOffset":362544,
			"target":34962
		},
		{
			"buffer":0,
			"byteLength":241696,
			"byteOffset":725088,
			"target":34962
		},
		{
			"buffer":0,
			"byteLength":483392,
			"byteOffset":966784,
			"target":34962
		},
		{
			"buffer":0,
			"byteLength":201246,
			"byteOffset":1450176,
			"target":34963
		}
	],
	"samplers":[
		{
			"magFilter":9729,
			"minFilter":9987
		}
	],
	"buffers":[
		{
			"byteLength":1651424,
			"uri":"cerberus.bin"
		}
	]
}
