{
	"asset":{
		"generator":"Khronos glTF Blender I/O v4.4.56",
		"version":"2.0"
	},
	"scene":0,
	"scenes":[
		{
			"name":"Scene",
			"nodes":[
				0,
				1,
				2,
				3
			]
		}
	],
	"nodes":[
		{
			"mesh":0,
			"name":"Suzanne"
		},
		{
			"mesh":1,
			"name":"Cube"
		},
		{
			"mesh":2,
			"name":"Cylinder"
		},
		{
			"mesh":3,
			"name":"Icosphere"
		}
	],
	"meshes":[
		{
			"name":"Mesh",
			"primitives":[
				{
					"attributes":{
						"POSITION":0,
						"NORMAL":1,
						"TEXCOORD_0":2
					},
					"indices":3
				}
			]
		},
		{
			"name":"Cube.001",
			"primitives":[
				{
					"attributes":{
						"POSITION":4,
						"NORMAL":5,
						"TEXCOORD_0":6
					},
					"indices":7
				}
			]
		},
		{
			"name":"Cylinder",
			"primitives":[
				{
					"attributes":{
						"POSITION":8,
						"NORMAL":9,
						"TEXCOORD_0":10
					},
					"indices":11
				}
			]
		},
		{
			"name":"Icosphere",
			"primitives":[
				{
					"attributes":{
						"POSITION":12,
						"NORMAL":13,
						"TEXCOORD_0":14
					},
					"indices":15
				}
			]
		}
	],
	"accessors":[
		{
			"bufferView":0,
			"componentType":5126,
			"count":9853,
			"max":[
				1.328185796737671,
				0.9392362236976624,
				0.8224414587020874
			],
			"min":[
				-1.328185796737671,
				-0.971822202205658,
				-0.7782661318778992
			],
			"type":"VEC3"
		},
		{
			"bufferView":1,
			"componentType":5126,
			"count":9853,
			"type":"VEC3"
		},
		{
			"bufferView":2,
			"componentType":5126,
			"count":9853,
			"type":"VEC2"
		},
		{
			"bufferView":3,
			"componentType":5123,
			"count":47232,
			"type":"SCALAR"
		},
		{
			"bufferView":4,
			"componentType":5126,
			"count":24,
			"max":[
				-1.901871681213379,
				1,
				-1.268444538116455
			],
			"min":[
				-3.901871681213379,
				-1,
				-3.268444538116455
			],
			"type":"VEC3"
		},
		{
			"bufferView":5,
			"componentType":5126,
			"count":24,
			"type":"VEC3"
		},
		{
			"bufferView":6,
			"componentType":5126,
			"count":24,
			"type":"VEC2"
		},
		{
			"bufferView":7,
			"componentType":5123,
			"count":36,
			"type":"SCALAR"
		},
		{
			"bufferView":8,
			"componentType":5126,
			"count":192,
			"max":[
				3.7989258766174316,
				2.4270105361938477,
				-0.9931550025939941
			],
			"min":[
				1.7989258766174316,
				0.42701053619384766,
				-2.993155002593994
			],
			"type":"VEC3"
		},
		{
			"bufferView":9,
			"componentType":5126,
			"count":192,
			"type":"VEC3"
		},
		{
			"bufferView":10,
			"componentType":5126,
			"count":192,
			"type":"VEC2"
		},
		{
			"bufferView":11,
			"componentType":5123,
			"count":372,
			"type":"SCALAR"
		},
		{
			"bufferView":12,
			"componentType":5126,
			"count":240,
			"max":[
				0.03358978033065796,
				0.24066287279129028,
				4.308019638061523
			],
			"min":[
				-1.8685259819030762,
				-1.7593371868133545,
				2.3080198764801025
			],
			"type":"VEC3"
		},
		{
			"bufferView":13,
			"componentType":5126,
			"count":240,
			"type":"VEC3"
		},
		{
			"bufferView":14,
			"componentType":5126,
			"count":240,
			"type":"VEC2"
		},
		{
			"bufferView":15,
			"componentType":5123,
			"count":240,
			"type":"SCALAR"
		}
	],
	"bufferViews":[
		{
			"buffer":0,
			"byteLength":118236,
			"byteOffset":0,
			"target":34962
		},
		{
			"buffer":0,
			"byteLength":118236,
			"byteOffset":118236,
			"target":34962
		},
		{
			"buffer":0,
			"byteLength":78824,
			"byteOffset":236472,
			"target":34962
		},
		{
			"buffer":0,
			"byteLength":94464,
			"byteOffset":315296,
			"target":34963
		},
		{
			"buffer":0,
			"byteLength":288,
			"byteOffset":409760,
			"target":34962
		},
		{
			"buffer":0,
			"byteLength":288,
			"byteOffset":410048,
			"target":34962
		},
		{
			"buffer":0,
			"byteLength":192,
			"byteOffset":410336,
			"target":34962
		},
		{
			"buffer":0,
			"byteLength":72,
			"byteOffset":410528,
			"target":34963
		},
		{
			"buffer":0,
			"byteLength":2304,
			"byteOffset":410600,
			"target":34962
		},
		{
			"buffer":0,
			"byteLength":2304,
			"byteOffset":412904,
			"target":34962
		},
		{
			"buffer":0,
			"byteLength":1536,
			"byteOffset":415208,
			"target":34962
		},
		{
			"buffer":0,
			"byteLength":744,
			"byteOffset":416744,
			"target":34963
		},
		{
			"buffer":0,
			"byteLength":2880,
			"byteOffset":417488,
			"target":34962
		},
		{
			"buffer":0,
			"byteLength":2880,
			"byteOffset":420368,
			"target":34962
		},
		{
			"buffer":0,
			"byteLength":1920,
			"byteOffset":423248,
			"target":34962
		},
		{
			"buffer":0,
			"byteLength":480,
			"byteOffset":425168,
			"target":34963
		}
	],
	"buffers":[
		{
			"byteLength":425648,
			"uri":"testScene.bin"
		}
	]
}
