{
	"asset":{
		"generator":"Khronos glTF Blender I/O v4.4.56",
		"version":"2.0"
	},
	"scene":0,
	"scenes":[
		{
			"name":"Scene",
			"nodes":[
				0
			]
		}
	],
	"nodes":[
		{
			"mesh":0,
			"name":"Sphere"
		}
	],
	"materials":[
		{
			"doubleSided":true,
			"name":"Metal",
			"normalTexture":{
				"index":0,
				"texCoord":1
			},
			"pbrMetallicRoughness":{
				"baseColorTexture":{
					"index":1,
					"texCoord":1
				},
				"metallicRoughnessTexture":{
					"index":2,
					"texCoord":1
				}
			}
		}
	],
	"meshes":[
		{
			"name":"Sphere",
			"primitives":[
				{
					"attributes":{
						"POSITION":0,
						"NORMAL":1,
						"TEXCOORD_0":2,
						"TEXCOORD_1":3,
						"TANGENT":4
					},
					"indices":5,
					"material":0
				}
			]
		}
	],
	"textures":[
		{
			"sampler":0,
			"source":0
		},
		{
			"sampler":0,
			"source":1
		},
		{
			"sampler":0,
			"source":2
		}
	],
	"images":[
		{
			"mimeType":"image/jpeg",
			"name":"Metal_normal",
			"uri":"Textures/Metal_normal.jpg"
		},
		{
			"mimeType":"image/jpeg",
			"name":"Metal_basecolor",
			"uri":"Textures/Metal_basecolor.jpg"
		},
		{
			"mimeType":"image/png",
			"name":"Metal_roughness",
			"uri":"Textures/Metal_roughness.png"
		}
	],
	"accessors":[
		{
			"bufferView":0,
			"componentType":5126,
			"count":2347,
			"max":[
				0.9872310161590576,
				0.9975767135620117,
				0.9872307181358337
			],
			"min":[
				-0.9872305393218994,
				-0.9975767135620117,
				-0.9872310161590576
			],
			"type":"VEC3"
		},
		{
			"bufferView":1,
			"componentType":5126,
			"count":2347,
			"type":"VEC3"
		},
		{
			"bufferView":2,
			"componentType":5126,
			"count":2347,
			"type":"VEC2"
		},
		{
			"bufferView":3,
			"componentType":5126,
			"count":2347,
			"type":"VEC2"
		},
		{
			"bufferView":4,
			"componentType":5126,
			"count":2347,
			"type":"VEC4"
		},
		{
			"bufferView":5,
			"componentType":5123,
			"count":11904,
			"type":"SCALAR"
		}
	],
	"bufferViews":[
		{
			"buffer":0,
			"byteLength":28164,
			"byteOffset":0,
			"target":34962
		},
		{
			"buffer":0,
			"byteLength":28164,
			"byteOffset":28164,
			"target":34962
		},
		{
			"buffer":0,
			"byteLength":18776,
			"byteOffset":56328,
			"target":34962
		},
		{
			"buffer":0,
			"byteLength":18776,
			"byteOffset":75104,
			"target":34962
		},
		{
			"buffer":0,
			"byteLength":37552,
			"byteOffset":93880,
			"target":34962
		},
		{
			"buffer":0,
			"byteLength":23808,
			"byteOffset":131432,
			"target":34963
		}
	],
	"samplers":[
		{
			"magFilter":9729,
			"minFilter":9987
		}
	],
	"buffers":[
		{
			"byteLength":155240,
			"uri":"shinyMetal.bin"
		}
	]
}
