{
	"asset":{
		"generator":"Khronos glTF Blender I/O v4.4.56",
		"version":"2.0"
	},
	"scene":0,
	"scenes":[
		{
			"name":"Scene",
			"nodes":[
				0,
				1,
				2,
				3
			]
		}
	],
	"nodes":[
		{
			"mesh":0,
			"name":"Sphere"
		},
		{
			"mesh":1,
			"name":"Sphere.001"
		},
		{
			"mesh":2,
			"name":"Sphere.002"
		},
		{
			"mesh":3,
			"name":"Sphere.003"
		}
	],
	"materials":[
		{
			"doubleSided":true,
			"name":"Rosa Levanto Marble.003",
			"normalTexture":{
				"index":0,
				"scale":0.20000000298023224,
				"texCoord":1
			},
			"pbrMetallicRoughness":{
				"baseColorTexture":{
					"index":1,
					"texCoord":1
				},
				"metallicFactor":0,
				"metallicRoughnessTexture":{
					"index":2,
					"texCoord":1
				}
			}
		},
		{
			"name":"Painted Steel.003",
			"normalTexture":{
				"index":3,
				"texCoord":1
			},
			"pbrMetallicRoughness":{
				"baseColorTexture":{
					"index":4,
					"texCoord":1
				},
				"metallicRoughnessTexture":{
					"index":5,
					"texCoord":1
				}
			}
		},
		{
			"doubleSided":true,
			"name":"Stone wall.003",
			"normalTexture":{
				"index":6,
				"texCoord":1
			},
			"pbrMetallicRoughness":{
				"baseColorTexture":{
					"index":7,
					"texCoord":1
				},
				"metallicFactor":0,
				"metallicRoughnessTexture":{
					"index":8,
					"texCoord":1
				}
			}
		},
		{
			"doubleSided":true,
			"name":"Blue cell tiles.004",
			"normalTexture":{
				"index":9
			},
			"pbrMetallicRoughness":{
				"baseColorTexture":{
					"index":10
				},
				"metallicFactor":0,
				"metallicRoughnessTexture":{
					"index":11
				}
			}
		}
	],
	"meshes":[
		{
			"name":"Sphere.015",
			"primitives":[
				{
					"attributes":{
						"POSITION":0,
						"NORMAL":1,
						"TEXCOORD_0":2,
						"TEXCOORD_1":3
					},
					"indices":4,
					"material":0
				}
			]
		},
		{
			"name":"Sphere.016",
			"primitives":[
				{
					"attributes":{
						"POSITION":5,
						"NORMAL":6,
						"TEXCOORD_0":7,
						"TEXCOORD_1":8
					},
					"indices":9,
					"material":1
				}
			]
		},
		{
			"name":"Sphere.017",
			"primitives":[
				{
					"attributes":{
						"POSITION":10,
						"NORMAL":11,
						"TEXCOORD_0":12,
						"TEXCOORD_1":13
					},
					"indices":14,
					"material":2
				}
			]
		},
		{
			"name":"Sphere.018",
			"primitives":[
				{
					"attributes":{
						"POSITION":15,
						"NORMAL":16,
						"TEXCOORD_0":17
					},
					"indices":14,
					"material":3
				}
			]
		}
	],
	"textures":[
		{
			"sampler":0,
			"source":0
		},
		{
			"sampler":0,
			"source":1
		},
		{
			"sampler":0,
			"source":2
		},
		{
			"sampler":0,
			"source":3
		},
		{
			"sampler":0,
			"source":4
		},
		{
			"sampler":0,
			"source":5
		},
		{
			"sampler":0,
			"source":6
		},
		{
			"sampler":0,
			"source":7
		},
		{
			"sampler":0,
			"source":8
		},
		{
			"sampler":0,
			"source":9
		},
		{
			"sampler":0,
			"source":10
		},
		{
			"sampler":0,
			"source":11
		}
	],
	"images":[
		{
			"mimeType":"image/jpeg",
			"name":"Rosa Levanto Marble_4K_Normal",
			"uri":"Textures/Rosa%20Levanto%20Marble_4K_Normal.jpg"
		},
		{
			"mimeType":"image/jpeg",
			"name":"Rosa Levanto Marble_4K_Albedo",
			"uri":"Textures/Rosa%20Levanto%20Marble_4K_Albedo.jpg"
		},
		{
			"mimeType":"image/png",
			"name":"Rosa Levanto Marble_4K_Roughness",
			"uri":"Textures/Rosa%20Levanto%20Marble_4K_Roughness.png"
		},
		{
			"mimeType":"image/jpeg",
			"name":"painted_steel_21_normal",
			"uri":"Textures/painted_steel_21_normal.jpg"
		},
		{
			"mimeType":"image/jpeg",
			"name":"painted_steel_21_color",
			"uri":"Textures/painted_steel_21_color.jpg"
		},
		{
			"mimeType":"image/png",
			"name":"painted_steel_21_metallic-painted_steel_21_roughness",
			"uri":"Textures/painted_steel_21_metallic-painted_steel_21_roughness.png"
		},
		{
			"mimeType":"image/jpeg",
			"name":"stone_wall03_normal_opengl",
			"uri":"Textures/stone_wall03_normal_opengl.jpg"
		},
		{
			"mimeType":"image/jpeg",
			"name":"stone_wall03_diffuse",
			"uri":"Textures/stone_wall03_diffuse.jpg"
		},
		{
			"mimeType":"image/png",
			"name":"stone_wall03_glossiness",
			"uri":"Textures/stone_wall03_glossiness.png"
		},
		{
			"mimeType":"image/jpeg",
			"name":"tiles05_normal_opengl",
			"uri":"Textures/tiles05_normal_opengl.jpg"
		},
		{
			"mimeType":"image/jpeg",
			"name":"tiles05_diffuse",
			"uri":"Textures/tiles05_diffuse.jpg"
		},
		{
			"mimeType":"image/png",
			"name":"tiles05_glossiness",
			"uri":"Textures/tiles05_glossiness.png"
		}
	],
	"accessors":[
		{
			"bufferView":0,
			"componentType":5126,
			"count":2326,
			"max":[
				-3.5,
				1,
				0.9999997615814209
			],
			"min":[
				-5.499999523162842,
				-1,
				-1
			],
			"type":"VEC3"
		},
		{
			"bufferView":1,
			"componentType":5126,
			"count":2326,
			"type":"VEC3"
		},
		{
			"bufferView":2,
			"componentType":5126,
			"count":2326,
			"type":"VEC2"
		},
		{
			"bufferView":3,
			"componentType":5126,
			"count":2326,
			"type":"VEC2"
		},
		{
			"bufferView":4,
			"componentType":5123,
			"count":11904,
			"type":"SCALAR"
		},
		{
			"bufferView":5,
			"componentType":5126,
			"count":2343,
			"max":[
				-0.5000004768371582,
				1,
				0.9999997615814209
			],
			"min":[
				-2.5,
				-1,
				-1
			],
			"type":"VEC3"
		},
		{
			"bufferView":6,
			"componentType":5126,
			"count":2343,
			"type":"VEC3"
		},
		{
			"bufferView":7,
			"componentType":5126,
			"count":2343,
			"type":"VEC2"
		},
		{
			"bufferView":8,
			"componentType":5126,
			"count":2343,
			"type":"VEC2"
		},
		{
			"bufferView":9,
			"componentType":5123,
			"count":11904,
			"type":"SCALAR"
		},
		{
			"bufferView":10,
			"componentType":5126,
			"count":2349,
			"max":[
				2.4999990463256836,
				1,
				0.9999997615814209
			],
			"min":[
				0.4999995231628418,
				-1,
				-1
			],
			"type":"VEC3"
		},
		{
			"bufferView":11,
			"componentType":5126,
			"count":2349,
			"type":"VEC3"
		},
		{
			"bufferView":12,
			"componentType":5126,
			"count":2349,
			"type":"VEC2"
		},
		{
			"bufferView":13,
			"componentType":5126,
			"count":2349,
			"type":"VEC2"
		},
		{
			"bufferView":14,
			"componentType":5123,
			"count":11904,
			"type":"SCALAR"
		},
		{
			"bufferView":15,
			"componentType":5126,
			"count":2349,
			"max":[
				5.499998092651367,
				1,
				0.9999997615814209
			],
			"min":[
				3.4999985694885254,
				-1,
				-1
			],
			"type":"VEC3"
		},
		{
			"bufferView":16,
			"componentType":5126,
			"count":2349,
			"type":"VEC3"
		},
		{
			"bufferView":17,
			"componentType":5126,
			"count":2349,
			"type":"VEC2"
		}
	],
	"bufferViews":[
		{
			"buffer":0,
			"byteLength":27912,
			"byteOffset":0,
			"target":34962
		},
		{
			"buffer":0,
			"byteLength":27912,
			"byteOffset":27912,
			"target":34962
		},
		{
			"buffer":0,
			"byteLength":18608,
			"byteOffset":55824,
			"target":34962
		},
		{
			"buffer":0,
			"byteLength":18608,
			"byteOffset":74432,
			"target":34962
		},
		{
			"buffer":0,
			"byteLength":23808,
			"byteOffset":93040,
			"target":34963
		},
		{
			"buffer":0,
			"byteLength":28116,
			"byteOffset":116848,
			"target":34962
		},
		{
			"buffer":0,
			"byteLength":28116,
			"byteOffset":144964,
			"target":34962
		},
		{
			"buffer":0,
			"byteLength":18744,
			"byteOffset":173080,
			"target":34962
		},
		{
			"buffer":0,
			"byteLength":18744,
			"byteOffset":191824,
			"target":34962
		},
		{
			"buffer":0,
			"byteLength":23808,
			"byteOffset":210568,
			"target":34963
		},
		{
			"buffer":0,
			"byteLength":28188,
			"byteOffset":234376,
			"target":34962
		},
		{
			"buffer":0,
			"byteLength":28188,
			"byteOffset":262564,
			"target":34962
		},
		{
			"buffer":0,
			"byteLength":18792,
			"byteOffset":290752,
			"target":34962
		},
		{
			"buffer":0,
			"byteLength":18792,
			"byteOffset":309544,
			"target":34962
		},
		{
			"buffer":0,
			"byteLength":23808,
			"byteOffset":328336,
			"target":34963
		},
		{
			"buffer":0,
			"byteLength":28188,
			"byteOffset":352144,
			"target":34962
		},
		{
			"buffer":0,
			"byteLength":28188,
			"byteOffset":380332,
			"target":34962
		},
		{
			"buffer":0,
			"byteLength":18792,
			"byteOffset":408520,
			"target":34962
		}
	],
	"samplers":[
		{
			"magFilter":9729,
			"minFilter":9987
		}
	],
	"buffers":[
		{
			"byteLength":427312,
			"uri":"materialsTestScene.bin"
		}
	]
}
