{
	"asset":{
		"generator":"Khronos glTF Blender I/O v4.4.56",
		"version":"2.0"
	},
	"scene":0,
	"scenes":[
		{
			"name":"Scene",
			"nodes":[
				0
			]
		}
	],
	"nodes":[
		{
			"mesh":0,
			"name":"Suzanne"
		}
	],
	"meshes":[
		{
			"name":"Mesh",
			"primitives":[
				{
					"attributes":{
						"POSITION":0,
						"NORMAL":1,
						"TEXCOORD_0":2
					},
					"indices":3
				}
			]
		}
	],
	"accessors":[
		{
			"bufferView":0,
			"componentType":5126,
			"count":9853,
			"max":[
				1.328185796737671,
				0.9392362236976624,
				0.8224414587020874
			],
			"min":[
				-1.328185796737671,
				-0.971822202205658,
				-0.7782661318778992
			],
			"type":"VEC3"
		},
		{
			"bufferView":1,
			"componentType":5126,
			"count":9853,
			"type":"VEC3"
		},
		{
			"bufferView":2,
			"componentType":5126,
			"count":9853,
			"type":"VEC2"
		},
		{
			"bufferView":3,
			"componentType":5123,
			"count":47232,
			"type":"SCALAR"
		}
	],
	"bufferViews":[
		{
			"buffer":0,
			"byteLength":118236,
			"byteOffset":0,
			"target":34962
		},
		{
			"buffer":0,
			"byteLength":118236,
			"byteOffset":118236,
			"target":34962
		},
		{
			"buffer":0,
			"byteLength":78824,
			"byteOffset":236472,
			"target":34962
		},
		{
			"buffer":0,
			"byteLength":94464,
			"byteOffset":315296,
			"target":34963
		}
	],
	"buffers":[
		{
			"byteLength":409760,
			"uri":"monkey.bin"
		}
	]
}
