{
	"asset":{
		"generator":"Khronos glTF Blender I/O v4.4.56",
		"version":"2.0"
	},
	"scene":0,
	"scenes":[
		{
			"name":"Scene",
			"nodes":[
				1
			]
		}
	],
	"nodes":[
		{
			"mesh":0,
			"name":"finalsLogoSVG.svg",
			"rotation":[
				0.28169944882392883,
				-0.21855756640434265,
				-0.0025341378059238195,
				0.9342759847640991
			],
			"scale":[
				1.6334705352783203,
				1.6334707736968994,
				1.6334707736968994
			]
		},
		{
			"children":[
				0
			],
			"mesh":1,
			"name":"Cube",
			"rotation":[
				-0.28169944882392883,
				0.21855759620666504,
				0.0025341438595205545,
				0.9342759847640991
			]
		}
	],
	"materials":[
		{
			"doubleSided":true,
			"name":"Material.001",
			"pbrMetallicRoughness":{
				"baseColorFactor":[
					1,
					0,
					0,
					1
				],
				"metallicFactor":0,
				"roughnessFactor":0.5
			}
		},
		{
			"doubleSided":true,
			"name":"Material.002",
			"pbrMetallicRoughness":{
				"baseColorFactor":[
					0,
					1,
					0,
					1
				],
				"metallicFactor":0,
				"roughnessFactor":0.5
			}
		},
		{
			"doubleSided":true,
			"name":"Material.003",
			"pbrMetallicRoughness":{
				"baseColorFactor":[
					0,
					0,
					1,
					1
				],
				"metallicFactor":0,
				"roughnessFactor":0.5
			}
		}
	],
	"meshes":[
		{
			"name":"finalsLogoSVG.svg",
			"primitives":[
				{
					"attributes":{
						"POSITION":0,
						"NORMAL":1,
						"TEXCOORD_0":2,
						"COLOR_0":3,
						"COLOR_1":4
					},
					"indices":5
				}
			]
		},
		{
			"name":"Cube.001",
			"primitives":[
				{
					"attributes":{
						"POSITION":6,
						"NORMAL":7,
						"TEXCOORD_0":8
					},
					"indices":9,
					"material":0
				},
				{
					"attributes":{
						"POSITION":10,
						"NORMAL":11,
						"TEXCOORD_0":12
					},
					"indices":13,
					"material":1
				},
				{
					"attributes":{
						"POSITION":14,
						"NORMAL":15,
						"TEXCOORD_0":16
					},
					"indices":17,
					"material":2
				}
			]
		}
	],
	"accessors":[
		{
			"bufferView":0,
			"componentType":5126,
			"count":482,
			"max":[
				0.747689962387085,
				0.5936394929885864,
				0.8393515348434448
			],
			"min":[
				-0.16028983891010284,
				0.011586308479309082,
				0.27749067544937134
			],
			"type":"VEC3"
		},
		{
			"bufferView":1,
			"componentType":5126,
			"count":482,
			"type":"VEC3"
		},
		{
			"bufferView":2,
			"componentType":5126,
			"count":482,
			"type":"VEC2"
		},
		{
			"bufferView":3,
			"componentType":5123,
			"count":482,
			"normalized":true,
			"type":"VEC4"
		},
		{
			"bufferView":4,
			"componentType":5123,
			"count":482,
			"normalized":true,
			"type":"VEC4"
		},
		{
			"bufferView":5,
			"componentType":5123,
			"count":1290,
			"type":"SCALAR"
		},
		{
			"bufferView":6,
			"componentType":5126,
			"count":27,
			"max":[
				1,
				1,
				1
			],
			"min":[
				-1,
				-1,
				-0.6521788835525513
			],
			"type":"VEC3"
		},
		{
			"bufferView":7,
			"componentType":5126,
			"count":27,
			"type":"VEC3"
		},
		{
			"bufferView":8,
			"componentType":5126,
			"count":27,
			"type":"VEC2"
		},
		{
			"bufferView":9,
			"componentType":5123,
			"count":39,
			"type":"SCALAR"
		},
		{
			"bufferView":10,
			"componentType":5126,
			"count":12,
			"max":[
				1.0969970226287842,
				1.0969970226287842,
				0.49290889501571655
			],
			"min":[
				-1.0969970226287842,
				-1.0969970226287842,
				-0.7051452994346619
			],
			"type":"VEC3"
		},
		{
			"bufferView":11,
			"componentType":5126,
			"count":12,
			"type":"VEC3"
		},
		{
			"bufferView":12,
			"componentType":5126,
			"count":12,
			"type":"VEC2"
		},
		{
			"bufferView":13,
			"componentType":5123,
			"count":24,
			"type":"SCALAR"
		},
		{
			"bufferView":14,
			"componentType":5126,
			"count":20,
			"max":[
				1.0969970226287842,
				1.0969970226287842,
				0.49290889501571655
			],
			"min":[
				-1.0969970226287842,
				-1.0969970226287842,
				-1.0969970226287842
			],
			"type":"VEC3"
		},
		{
			"bufferView":15,
			"componentType":5126,
			"count":20,
			"type":"VEC3"
		},
		{
			"bufferView":16,
			"componentType":5126,
			"count":20,
			"type":"VEC2"
		},
		{
			"bufferView":17,
			"componentType":5123,
			"count":30,
			"type":"SCALAR"
		}
	],
	"bufferViews":[
		{
			"buffer":0,
			"byteLength":5784,
			"byteOffset":0,
			"target":34962
		},
		{
			"buffer":0,
			"byteLength":5784,
			"byteOffset":5784,
			"target":34962
		},
		{
			"buffer":0,
			"byteLength":3856,
			"byteOffset":11568,
			"target":34962
		},
		{
			"buffer":0,
			"byteLength":3856,
			"byteOffset":15424,
			"target":34962
		},
		{
			"buffer":0,
			"byteLength":3856,
			"byteOffset":19280,
			"target":34962
		},
		{
			"buffer":0,
			"byteLength":2580,
			"byteOffset":23136,
			"target":34963
		},
		{
			"buffer":0,
			"byteLength":324,
			"byteOffset":25716,
			"target":34962
		},
		{
			"buffer":0,
			"byteLength":324,
			"byteOffset":26040,
			"target":34962
		},
		{
			"buffer":0,
			"byteLength":216,
			"byteOffset":26364,
			"target":34962
		},
		{
			"buffer":0,
			"byteLength":78,
			"byteOffset":26580,
			"target":34963
		},
		{
			"buffer":0,
			"byteLength":144,
			"byteOffset":26660,
			"target":34962
		},
		{
			"buffer":0,
			"byteLength":144,
			"byteOffset":26804,
			"target":34962
		},
		{
			"buffer":0,
			"byteLength":96,
			"byteOffset":26948,
			"target":34962
		},
		{
			"buffer":0,
			"byteLength":48,
			"byteOffset":27044,
			"target":34963
		},
		{
			"buffer":0,
			"byteLength":240,
			"byteOffset":27092,
			"target":34962
		},
		{
			"buffer":0,
			"byteLength":240,
			"byteOffset":27332,
			"target":34962
		},
		{
			"buffer":0,
			"byteLength":160,
			"byteOffset":27572,
			"target":34962
		},
		{
			"buffer":0,
			"byteLength":60,
			"byteOffset":27732,
			"target":34963
		}
	],
	"buffers":[
		{
			"byteLength":27792,
			"uri":"primitivesTestScene.bin"
		}
	]
}
