{
	"asset":{
		"generator":"Khronos glTF Blender I/O v4.4.56",
		"version":"2.0"
	},
	"scene":0,
	"scenes":[
		{
			"name":"Scene",
			"nodes":[
				1,
				4
			]
		}
	],
	"nodes":[
		{
			"mesh":0,
			"name":"Sphere",
			"rotation":[
				0,
				-0.3126102685928345,
				0,
				0.9498814940452576
			],
			"scale":[
				0.5482176542282104,
				0.5482177138328552,
				1.439965844154358
			],
			"translation":[
				0,
				4.0343852043151855,
				0
			]
		},
		{
			"children":[
				0
			],
			"mesh":1,
			"name":"Cube",
			"rotation":[
				0.23475457727909088,
				0.19237537682056427,
				-0.40971991419792175,
				0.8602392673492432
			],
			"scale":[
				1.5868961811065674,
				1.5868961811065674,
				1.5868961811065674
			]
		},
		{
			"mesh":2,
			"name":"Sphere.001",
			"rotation":[
				-0.2837446630001068,
				0,
				0,
				0.958899974822998
			],
			"scale":[
				0.47675126791000366,
				0.24431978166103363,
				0.47675129771232605
			],
			"translation":[
				0.5724591016769409,
				0,
				0
			]
		},
		{
			"mesh":3,
			"name":"Sphere.002",
			"rotation":[
				0.5814839601516724,
				0,
				0,
				0.8135578632354736
			],
			"scale":[
				0.4767410457134247,
				0.2443145364522934,
				0.4767410457134247
			],
			"translation":[
				-0.5724577903747559,
				0,
				0
			]
		},
		{
			"children":[
				2,
				3
			],
			"mesh":4,
			"name":"Torus",
			"rotation":[
				-0.3057461082935333,
				-0.7720201015472412,
				-0.35114163160324097,
				0.43267056345939636
			],
			"scale":[
				3.146362543106079,
				3.146362543106079,
				3.146362543106079
			],
			"translation":[
				0.6062264442443848,
				0.9707597494125366,
				-10.945758819580078
			]
		}
	],
	"materials":[
		{
			"doubleSided":true,
			"name":"Material",
			"pbrMetallicRoughness":{
				"baseColorFactor":[
					0.800000011920929,
					0.800000011920929,
					0.800000011920929,
					1
				],
				"metallicFactor":0,
				"roughnessFactor":0.5
			}
		}
	],
	"meshes":[
		{
			"name":"Sphere",
			"primitives":[
				{
					"attributes":{
						"POSITION":0,
						"NORMAL":1,
						"TEXCOORD_0":2
					},
					"indices":3
				}
			]
		},
		{
			"name":"Cube",
			"primitives":[
				{
					"attributes":{
						"POSITION":4,
						"NORMAL":5,
						"TEXCOORD_0":6
					},
					"indices":7,
					"material":0
				}
			]
		},
		{
			"name":"Sphere.001",
			"primitives":[
				{
					"attributes":{
						"POSITION":8,
						"NORMAL":9,
						"TEXCOORD_0":10
					},
					"indices":3
				}
			]
		},
		{
			"name":"Sphere.002",
			"primitives":[
				{
					"attributes":{
						"POSITION":11,
						"NORMAL":12,
						"TEXCOORD_0":13
					},
					"indices":14
				}
			]
		},
		{
			"name":"Mesh",
			"primitives":[
				{
					"attributes":{
						"POSITION":15,
						"NORMAL":16,
						"TEXCOORD_0":17
					},
					"indices":18
				}
			]
		}
	],
	"accessors":[
		{
			"bufferView":0,
			"componentType":5126,
			"count":559,
			"max":[
				0.9999997019767761,
				1,
				0.9999993443489075
			],
			"min":[
				-0.9999990463256836,
				-1,
				-1
			],
			"type":"VEC3"
		},
		{
			"bufferView":1,
			"componentType":5126,
			"count":559,
			"type":"VEC3"
		},
		{
			"bufferView":2,
			"componentType":5126,
			"count":559,
			"type":"VEC2"
		},
		{
			"bufferView":3,
			"componentType":5123,
			"count":2880,
			"type":"SCALAR"
		},
		{
			"bufferView":4,
			"componentType":5126,
			"count":24,
			"max":[
				1,
				1,
				1
			],
			"min":[
				-1,
				-1,
				-1
			],
			"type":"VEC3"
		},
		{
			"bufferView":5,
			"componentType":5126,
			"count":24,
			"type":"VEC3"
		},
		{
			"bufferView":6,
			"componentType":5126,
			"count":24,
			"type":"VEC2"
		},
		{
			"bufferView":7,
			"componentType":5123,
			"count":36,
			"type":"SCALAR"
		},
		{
			"bufferView":8,
			"componentType":5126,
			"count":559,
			"max":[
				0.9999997019767761,
				1,
				0.9999993443489075
			],
			"min":[
				-0.9999990463256836,
				-1,
				-1
			],
			"type":"VEC3"
		},
		{
			"bufferView":9,
			"componentType":5126,
			"count":559,
			"type":"VEC3"
		},
		{
			"bufferView":10,
			"componentType":5126,
			"count":559,
			"type":"VEC2"
		},
		{
			"bufferView":11,
			"componentType":5126,
			"count":559,
			"max":[
				0.9999997019767761,
				1,
				0.9999993443489075
			],
			"min":[
				-0.9999990463256836,
				-1,
				-1
			],
			"type":"VEC3"
		},
		{
			"bufferView":12,
			"componentType":5126,
			"count":559,
			"type":"VEC3"
		},
		{
			"bufferView":13,
			"componentType":5126,
			"count":559,
			"type":"VEC2"
		},
		{
			"bufferView":14,
			"componentType":5123,
			"count":2880,
			"type":"SCALAR"
		},
		{
			"bufferView":15,
			"componentType":5126,
			"count":9792,
			"max":[
				1.807761549949646,
				0.23883549869060516,
				1.2353025674819946
			],
			"min":[
				-1.761965274810791,
				-0.23883549869060516,
				-1.2353026866912842
			],
			"type":"VEC3"
		},
		{
			"bufferView":16,
			"componentType":5126,
			"count":9792,
			"type":"VEC3"
		},
		{
			"bufferView":17,
			"componentType":5126,
			"count":9792,
			"type":"VEC2"
		},
		{
			"bufferView":18,
			"componentType":5123,
			"count":55296,
			"type":"SCALAR"
		}
	],
	"bufferViews":[
		{
			"buffer":0,
			"byteLength":6708,
			"byteOffset":0,
			"target":34962
		},
		{
			"buffer":0,
			"byteLength":6708,
			"byteOffset":6708,
			"target":34962
		},
		{
			"buffer":0,
			"byteLength":4472,
			"byteOffset":13416,
			"target":34962
		},
		{
			"buffer":0,
			"byteLength":5760,
			"byteOffset":17888,
			"target":34963
		},
		{
			"buffer":0,
			"byteLength":288,
			"byteOffset":23648,
			"target":34962
		},
		{
			"buffer":0,
			"byteLength":288,
			"byteOffset":23936,
			"target":34962
		},
		{
			"buffer":0,
			"byteLength":192,
			"byteOffset":24224,
			"target":34962
		},
		{
			"buffer":0,
			"byteLength":72,
			"byteOffset":24416,
			"target":34963
		},
		{
			"buffer":0,
			"byteLength":6708,
			"byteOffset":24488,
			"target":34962
		},
		{
			"buffer":0,
			"byteLength":6708,
			"byteOffset":31196,
			"target":34962
		},
		{
			"buffer":0,
			"byteLength":4472,
			"byteOffset":37904,
			"target":34962
		},
		{
			"buffer":0,
			"byteLength":6708,
			"byteOffset":42376,
			"target":34962
		},
		{
			"buffer":0,
			"byteLength":6708,
			"byteOffset":49084,
			"target":34962
		},
		{
			"buffer":0,
			"byteLength":4472,
			"byteOffset":55792,
			"target":34962
		},
		{
			"buffer":0,
			"byteLength":5760,
			"byteOffset":60264,
			"target":34963
		},
		{
			"buffer":0,
			"byteLength":117504,
			"byteOffset":66024,
			"target":34962
		},
		{
			"buffer":0,
			"byteLength":117504,
			"byteOffset":183528,
			"target":34962
		},
		{
			"buffer":0,
			"byteLength":78336,
			"byteOffset":301032,
			"target":34962
		},
		{
			"buffer":0,
			"byteLength":110592,
			"byteOffset":379368,
			"target":34963
		}
	],
	"buffers":[
		{
			"byteLength":489960,
			"uri":"hierarchyTestScene.bin"
		}
	]
}
