{
	"asset":{
		"generator":"Khronos glTF Blender I/O v4.4.56",
		"version":"2.0"
	},
	"scene":0,
	"scenes":[
		{
			"name":"Scene",
			"nodes":[
				0,
				1,
				2,
				3
			]
		}
	],
	"nodes":[
		{
			"mesh":0,
			"name":"Cube"
		},
		{
			"mesh":1,
			"name":"Suzanne",
			"rotation":[
				-0.030579794198274612,
				0.7260867953300476,
				0.1184653490781784,
				0.6766304969787598
			],
			"translation":[
				0.9440405368804932,
				-1.8293862342834473,
				4.7064032554626465
			]
		},
		{
			"mesh":2,
			"name":"Icosphere",
			"scale":[
				1.1424044370651245,
				1.1833587884902954,
				1.8169227838516235
			],
			"translation":[
				3.41947340965271,
				0.3156169354915619,
				-4.291296005249023
			]
		},
		{
			"mesh":3,
			"name":"Cylinder",
			"rotation":[
				-0.37595829367637634,
				-0.15443742275238037,
				-0.1506039947271347,
				0.9011785984039307
			],
			"scale":[
				0.7983623743057251,
				1.2811293601989746,
				1.3508795499801636
			],
			"translation":[
				-3.358748435974121,
				3.6147472858428955,
				0.6486625671386719
			]
		}
	],
	"materials":[
		{
			"doubleSided":true,
			"name":"Material",
			"pbrMetallicRoughness":{
				"baseColorFactor":[
					0.800000011920929,
					0.800000011920929,
					0.800000011920929,
					1
				],
				"metallicFactor":0,
				"roughnessFactor":0.5
			}
		}
	],
	"meshes":[
		{
			"name":"Cube",
			"primitives":[
				{
					"attributes":{
						"POSITION":0,
						"NORMAL":1,
						"TEXCOORD_0":2
					},
					"indices":3,
					"material":0
				}
			]
		},
		{
			"name":"Mesh",
			"primitives":[
				{
					"attributes":{
						"POSITION":4,
						"NORMAL":5,
						"TEXCOORD_0":6
					},
					"indices":7
				}
			]
		},
		{
			"name":"Icosphere",
			"primitives":[
				{
					"attributes":{
						"POSITION":8,
						"NORMAL":9,
						"TEXCOORD_0":10
					},
					"indices":11
				}
			]
		},
		{
			"name":"Cylinder",
			"primitives":[
				{
					"attributes":{
						"POSITION":12,
						"NORMAL":13,
						"TEXCOORD_0":14
					},
					"indices":15
				}
			]
		}
	],
	"accessors":[
		{
			"bufferView":0,
			"componentType":5126,
			"count":24,
			"max":[
				1,
				1,
				1
			],
			"min":[
				-1,
				-1,
				-1
			],
			"type":"VEC3"
		},
		{
			"bufferView":1,
			"componentType":5126,
			"count":24,
			"type":"VEC3"
		},
		{
			"bufferView":2,
			"componentType":5126,
			"count":24,
			"type":"VEC2"
		},
		{
			"bufferView":3,
			"componentType":5123,
			"count":36,
			"type":"SCALAR"
		},
		{
			"bufferView":4,
			"componentType":5126,
			"count":9853,
			"max":[
				1.328185796737671,
				0.9392362236976624,
				0.8224414587020874
			],
			"min":[
				-1.328185796737671,
				-0.971822202205658,
				-0.7782661318778992
			],
			"type":"VEC3"
		},
		{
			"bufferView":5,
			"componentType":5126,
			"count":9853,
			"type":"VEC3"
		},
		{
			"bufferView":6,
			"componentType":5126,
			"count":9853,
			"type":"VEC2"
		},
		{
			"bufferView":7,
			"componentType":5123,
			"count":47232,
			"type":"SCALAR"
		},
		{
			"bufferView":8,
			"componentType":5126,
			"count":240,
			"max":[
				0.9510578513145447,
				1,
				0.9999999403953552
			],
			"min":[
				-0.9510578513145447,
				-1,
				-0.9999999403953552
			],
			"type":"VEC3"
		},
		{
			"bufferView":9,
			"componentType":5126,
			"count":240,
			"type":"VEC3"
		},
		{
			"bufferView":10,
			"componentType":5126,
			"count":240,
			"type":"VEC2"
		},
		{
			"bufferView":11,
			"componentType":5123,
			"count":240,
			"type":"SCALAR"
		},
		{
			"bufferView":12,
			"componentType":5126,
			"count":192,
			"max":[
				1,
				1.0000001192092896,
				1
			],
			"min":[
				-1,
				-1,
				-1
			],
			"type":"VEC3"
		},
		{
			"bufferView":13,
			"componentType":5126,
			"count":192,
			"type":"VEC3"
		},
		{
			"bufferView":14,
			"componentType":5126,
			"count":192,
			"type":"VEC2"
		},
		{
			"bufferView":15,
			"componentType":5123,
			"count":372,
			"type":"SCALAR"
		}
	],
	"bufferViews":[
		{
			"buffer":0,
			"byteLength":288,
			"byteOffset":0,
			"target":34962
		},
		{
			"buffer":0,
			"byteLength":288,
			"byteOffset":288,
			"target":34962
		},
		{
			"buffer":0,
			"byteLength":192,
			"byteOffset":576,
			"target":34962
		},
		{
			"buffer":0,
			"byteLength":72,
			"byteOffset":768,
			"target":34963
		},
		{
			"buffer":0,
			"byteLength":118236,
			"byteOffset":840,
			"target":34962
		},
		{
			"buffer":0,
			"byteLength":118236,
			"byteOffset":119076,
			"target":34962
		},
		{
			"buffer":0,
			"byteLength":78824,
			"byteOffset":237312,
			"target":34962
		},
		{
			"buffer":0,
			"byteLength":94464,
			"byteOffset":316136,
			"target":34963
		},
		{
			"buffer":0,
			"byteLength":2880,
			"byteOffset":410600,
			"target":34962
		},
		{
			"buffer":0,
			"byteLength":2880,
			"byteOffset":413480,
			"target":34962
		},
		{
			"buffer":0,
			"byteLength":1920,
			"byteOffset":416360,
			"target":34962
		},
		{
			"buffer":0,
			"byteLength":480,
			"byteOffset":418280,
			"target":34963
		},
		{
			"buffer":0,
			"byteLength":2304,
			"byteOffset":418760,
			"target":34962
		},
		{
			"buffer":0,
			"byteLength":2304,
			"byteOffset":421064,
			"target":34962
		},
		{
			"buffer":0,
			"byteLength":1536,
			"byteOffset":423368,
			"target":34962
		},
		{
			"buffer":0,
			"byteLength":744,
			"byteOffset":424904,
			"target":34963
		}
	],
	"buffers":[
		{
			"byteLength":425648,
			"uri":"transformsTestScene.bin"
		}
	]
}
